<?xml version="1.0"?>
<svg xmlns="http://www.w3.org/2000/svg" xmlns:xlink="http://www.w3.org/1999/xlink" version="1.1" id="Capa_1" x="0px" y="0px" viewBox="0 0 512 512" style="enable-background:new 0 0 512 512;" xml:space="preserve" width="512px" height="512px"><g><g>
	<g>
		<path d="M227.413,311.492c-7.97-8.149-18.637-12.698-30.123-12.826H42.667C19.14,298.667,0,317.807,0,341.333v34.577    c0.051,29.483,11.546,57.225,32.375,78.131c20.941,20.872,48.734,32.358,78.276,32.358c0.094,0,0.188,0,0.282,0h9.899    c0.008,0,0.017,0,0.026,0c52.548-0.162,98.15-37.683,108.433-89.216l9.472-47.522c0.512-2.577,0.785-5.214,0.819-7.868    C239.701,330.402,235.383,319.633,227.413,311.492z M222.029,346.325l-9.463,47.514c-8.713,43.605-47.292,75.341-91.733,75.494    h-9.924c-25.276-0.12-48.717-9.66-66.466-27.358c-17.604-17.672-27.332-41.148-27.375-66.082v-34.56    c0-14.114,11.486-25.6,25.6-25.6h154.53c6.844,0.077,13.244,2.799,18.031,7.689c4.779,4.881,7.373,11.341,7.296,18.176    C222.507,343.194,222.336,344.781,222.029,346.325z" data-original="#000000" class="active-path" data-old_color="#7b7e84" fill="#7b7e84"/>
	</g>
</g><g>
	<g>
		<rect x="187.733" y="298.667" width="136.533" height="17.067" data-original="#000000" class="active-path" data-old_color="#7b7e84" fill="#7b7e84"/>
	</g>
</g><g>
	<g>
		<path d="M469.333,298.667H314.624c-11.392,0.128-22.059,4.676-30.037,12.826c-7.979,8.141-12.297,18.91-12.169,30.276    c0.017,2.603,0.29,5.239,0.819,7.893l9.472,47.522c10.283,51.533,55.885,89.054,108.433,89.216c0.008,0,0.017,0,0.026,0h10.342    c29.491-0.06,57.233-11.546,78.131-32.375c20.813-20.881,32.299-48.623,32.358-78.131v-34.56    C512,317.807,492.86,298.667,469.333,298.667z M494.933,375.876c-0.051,24.96-9.762,48.435-27.358,66.082    c-17.664,17.604-41.139,27.324-66.082,27.375h-10.3c-44.459-0.137-83.055-31.881-91.75-75.486l-9.464-47.505    c-0.316-1.587-0.486-3.174-0.495-4.736c-0.077-6.844,2.509-13.304,7.296-18.185c4.787-4.89,11.179-7.612,17.929-7.689h154.624    c14.114,0,25.6,11.486,25.6,25.6V375.876z" data-original="#000000" class="active-path" data-old_color="#7b7e84" fill="#7b7e84"/>
	</g>
</g><g>
	<g>
		<path d="M72.533,25.6C32.538,25.6,0,58.138,0,98.133V332.8h17.067V98.133c0-30.583,24.883-55.467,55.467-55.467    C103.117,42.667,128,67.55,128,98.133v21.333h17.067V98.133C145.067,58.138,112.529,25.6,72.533,25.6z" data-original="#000000" class="active-path" data-old_color="#7b7e84" fill="#7b7e84"/>
	</g>
</g><g>
	<g>
		<path d="M439.467,25.6c-39.996,0-72.533,32.538-72.533,72.533v21.333H384V98.133c0-30.583,24.883-55.467,55.467-55.467    c30.583,0,55.467,24.883,55.467,55.467V332.8H512V98.133C512,58.138,479.462,25.6,439.467,25.6z" data-original="#000000" class="active-path" data-old_color="#7b7e84" fill="#7b7e84"/>
	</g>
</g><g>
	<g>
		<rect x="230.4" y="349.867" width="51.2" height="17.067" data-original="#000000" class="active-path" data-old_color="#7b7e84" fill="#7b7e84"/>
	</g>
</g></g> </svg>
